<svg width="1296" height="1316" viewBox="0 0 1296 1316" fill="none" xmlns="http://www.w3.org/2000/svg">
<path d="M231.987 378.653C243.227 354.2 273 340.373 298.92 347.533C326.293 354.48 345.4 382.827 344.147 410.667C345.333 440.04 322.76 467.413 294.107 472.987C285.4 530.2 285.68 588.707 293.853 645.96C302.387 700.92 317.6 755.507 345.12 804.147C366.733 841.12 396.28 874.64 434.667 894.667C469.013 913.813 509.027 920.813 548.013 919.907C578.907 918.053 609.587 906.88 633.013 886.333C668.187 856.067 687.787 812.147 700.533 768.453C719.693 698.32 723.547 624.973 722.48 552.613C698.107 544.28 680.533 520.427 680.133 494.627C677.253 463.2 701.36 430.787 733.36 427.76C764 423.333 793.867 447.413 798.547 477.493C805.36 505.987 790.213 536.88 764.453 550.12C766.667 602.68 764.12 655.467 756.893 707.573C747.84 764.267 732.68 821.067 702.453 870.427C685.36 897.387 663.76 922.293 635.84 938.427C611.827 953.24 584.04 961.667 555.947 963.72C508.733 968.133 460.533 958.027 418.507 936.253C380.533 916.107 347.933 886.347 323.96 850.693C285.507 795.16 265.16 729.173 254.227 663.093C244.64 598.64 242.067 532.627 252.347 468.093C253.64 463.76 248.947 461.467 246.56 458.787C223.387 440.28 217.187 404.2 231.987 378.653Z" fill="#FFFEFF" stroke="#FFFEFF" stroke-width="0.125"/>
<path d="M297.853 22.24C345.013 22.1066 391.867 28.5733 438.733 33.2266C522.493 43.0266 606 55.0666 689.32 68.1333C783.213 83.44 877.053 99.3733 970.093 119.32C1000.89 125.987 1031.69 132.867 1061.84 142.12C1069.56 144.56 1077.21 147.547 1084.01 152.013C1092.41 158.68 1091.28 172.6 1082.27 178.227C1051.2 203.173 1020.21 228.24 988.933 252.92C979.147 260.413 970.507 269.467 959.867 275.8C951.067 281.613 939.64 280.64 929.907 278.053C878.893 262.973 827.04 250.88 775.44 237.987C675.68 213.52 575.16 192.253 474.107 173.92C416.453 163.347 358.8 152.6 300.68 144.893C292.827 144.133 282.933 141.933 279.587 133.8C277.213 114.2 279.467 94.36 280.267 74.7067C281.72 59.2133 282 43.3333 287.213 28.48C289.307 24.68 293.613 22.5333 297.853 22.24Z" fill="#01AEF0" stroke="#01AEF0" stroke-width="0.125"/>
<path d="M251.187 27.28C259.813 25.92 266.893 35.56 264.8 43.7866C263.52 68.7733 261.227 93.6933 260.027 118.693C259.827 125.013 259.133 134.853 251.467 136.72C215.68 138.027 179.987 132.733 144.2 131.707C137 131.227 126.653 131.307 123.507 123.107C118.48 112.227 130.493 105.653 136.853 99.5066C165.307 76.6133 195.64 55.9733 227.48 38.08C235.187 34.1466 242.747 29.48 251.187 27.28Z" fill="#1E76BD" stroke="#1E76BD" stroke-width="0.125"/>
<path d="M125.933 152.68C179.373 152.72 232.307 161.253 285.16 168.253C379.16 182.773 472.893 199.147 566.147 217.893C660.307 236.96 754.293 257.2 847.107 282.16C873.733 290.2 901.227 296.827 925.853 310.107C941.627 317.307 941.027 336.613 943.32 351.267C954.24 470.28 952.973 589.973 956.04 709.333C955.6 875.067 958.147 1040.93 948.96 1206.48C947.28 1227.12 946.187 1247.96 941.747 1268.25C939.587 1277.76 933.347 1288.28 922.72 1289.36C901.96 1292.87 881.027 1288.93 860.427 1286.24C803.12 1277.03 746.387 1264.63 689.893 1251.36C564.88 1221.87 440.653 1188.92 317.787 1151.44C259.373 1133.17 200.72 1115.28 144.107 1091.87C127.613 1084.48 110.333 1077.87 95.9733 1066.67C84.2133 1058.76 84.0266 1043.37 82.3733 1030.73C76.8133 968.893 75.7333 906.76 74.04 844.733C70.4666 709.413 72.5733 574.027 71.96 438.667C73.3067 370.453 73.7067 302.187 77.84 234.053C79.7467 213.253 79.8667 192.12 84.96 171.747C86.4667 164.987 91.4133 159.187 97.7733 156.493C106.84 153.493 116.48 153.227 125.933 152.68ZM231.987 378.653C217.187 404.2 223.387 440.28 246.56 458.787C248.947 461.467 253.64 463.76 252.347 468.093C242.067 532.627 244.64 598.64 254.227 663.093C265.16 729.173 285.507 795.16 323.96 850.693C347.933 886.347 380.533 916.107 418.507 936.253C460.533 958.027 508.733 968.133 555.947 963.72C584.04 961.667 611.827 953.24 635.84 938.427C663.76 922.293 685.36 897.387 702.453 870.427C732.68 821.067 747.84 764.267 756.893 707.573C764.12 655.467 766.667 602.68 764.453 550.12C790.213 536.88 805.36 505.987 798.547 477.493C793.867 447.413 764 423.333 733.36 427.76C701.36 430.787 677.253 463.2 680.133 494.627C680.533 520.427 698.107 544.28 722.48 552.613C723.547 624.973 719.693 698.32 700.533 768.453C687.787 812.147 668.187 856.067 633.013 886.333C609.587 906.88 578.907 918.053 548.013 919.907C509.027 920.813 469.013 913.813 434.667 894.667C396.28 874.64 366.733 841.12 345.12 804.147C317.6 755.507 302.387 700.92 293.853 645.96C285.68 588.707 285.4 530.2 294.107 472.987C322.76 467.413 345.333 440.04 344.147 410.667C345.4 382.827 326.293 354.48 298.92 347.533C273 340.373 243.227 354.2 231.987 378.653Z" fill="#5D87FF" stroke="#5D87FF" stroke-width="0.125"/>
<path d="M1121.61 190.12C1131.05 189.373 1136.6 198.533 1138.71 206.52C1145.63 235.933 1148.19 266.133 1151.88 296.067C1168.17 444.173 1179.51 592.787 1190.27 741.4C1197.01 831.507 1202.77 921.693 1206.43 1011.99C1206.77 1031.92 1207.39 1051.89 1206.2 1071.81C1205.21 1079.04 1199.77 1084.59 1195.45 1090.15C1158.93 1129.31 1118.08 1164.11 1076.79 1198.09C1057.09 1213.65 1037.89 1230.05 1016.29 1242.99C1007.35 1247.57 996.6 1251.81 986.96 1246.45C973.827 1235.52 978.28 1216.16 977.507 1201.32C980.547 1152.93 982 1104.47 982.68 1056C981.893 1009.76 984.987 963.573 984 917.333C985.16 730.6 980.747 543.92 973.347 357.347C973.72 341.213 970.867 324.307 976.827 308.853C980.733 301.947 986.84 296.547 992.88 291.533C1029.16 261.6 1064.85 230.96 1101.49 201.467C1107.65 197.08 1113.6 190.773 1121.61 190.12Z" fill="#F0B100" stroke="#F0B100" stroke-width="0.125"/>
</svg>
