<svg width="4973" height="1411" viewBox="0 0 4973 1411" fill="none" xmlns="http://www.w3.org/2000/svg">
<path d="M231.987 378.653C243.227 354.2 273 340.373 298.92 347.533C326.293 354.48 345.4 382.827 344.147 410.667C345.333 440.04 322.76 467.413 294.107 472.987C285.4 530.2 285.68 588.707 293.853 645.96C302.387 700.92 317.6 755.507 345.12 804.147C366.733 841.12 396.28 874.64 434.667 894.667C469.013 913.813 509.027 920.813 548.013 919.907C578.907 918.053 609.587 906.88 633.013 886.333C668.187 856.067 687.787 812.147 700.533 768.453C719.693 698.32 723.547 624.973 722.48 552.613C698.107 544.28 680.533 520.427 680.133 494.627C677.253 463.2 701.36 430.787 733.36 427.76C764 423.333 793.867 447.413 798.547 477.493C805.36 505.987 790.213 536.88 764.453 550.12C766.667 602.68 764.12 655.467 756.893 707.573C747.84 764.267 732.68 821.067 702.453 870.427C685.36 897.387 663.76 922.293 635.84 938.427C611.827 953.24 584.04 961.667 555.947 963.72C508.733 968.133 460.533 958.027 418.507 936.253C380.533 916.107 347.933 886.347 323.96 850.693C285.507 795.16 265.16 729.173 254.227 663.093C244.64 598.64 242.067 532.627 252.347 468.093C253.64 463.76 248.947 461.467 246.56 458.787C223.387 440.28 217.187 404.2 231.987 378.653Z" fill="#FFFEFF" stroke="#FFFEFF" stroke-width="0.125"/>
<path d="M297.853 22.24C345.013 22.1066 391.867 28.5733 438.733 33.2266C522.493 43.0266 606 55.0666 689.32 68.1333C783.213 83.44 877.053 99.3733 970.093 119.32C1000.89 125.987 1031.69 132.867 1061.84 142.12C1069.56 144.56 1077.21 147.547 1084.01 152.013C1092.41 158.68 1091.28 172.6 1082.27 178.227C1051.2 203.173 1020.21 228.24 988.933 252.92C979.147 260.413 970.507 269.467 959.867 275.8C951.067 281.613 939.64 280.64 929.907 278.053C878.893 262.973 827.04 250.88 775.44 237.987C675.68 213.52 575.16 192.253 474.107 173.92C416.453 163.347 358.8 152.6 300.68 144.893C292.827 144.133 282.933 141.933 279.587 133.8C277.213 114.2 279.467 94.36 280.267 74.7067C281.72 59.2133 282 43.3333 287.213 28.48C289.307 24.68 293.613 22.5333 297.853 22.24Z" fill="#01AEF0" stroke="#01AEF0" stroke-width="0.125"/>
<path d="M251.187 27.28C259.813 25.92 266.893 35.56 264.8 43.7866C263.52 68.7733 261.227 93.6933 260.027 118.693C259.827 125.013 259.133 134.853 251.467 136.72C215.68 138.027 179.987 132.733 144.2 131.707C137 131.227 126.653 131.307 123.507 123.107C118.48 112.227 130.493 105.653 136.853 99.5066C165.307 76.6133 195.64 55.9733 227.48 38.08C235.187 34.1466 242.747 29.48 251.187 27.28Z" fill="#1E76BD" stroke="#1E76BD" stroke-width="0.125"/>
<path d="M125.933 152.68C179.373 152.72 232.307 161.253 285.16 168.253C379.16 182.773 472.893 199.147 566.147 217.893C660.307 236.96 754.293 257.2 847.107 282.16C873.733 290.2 901.227 296.827 925.853 310.107C941.627 317.307 941.027 336.613 943.32 351.267C954.24 470.28 952.973 589.973 956.04 709.333C955.6 875.067 958.147 1040.93 948.96 1206.48C947.28 1227.12 946.187 1247.96 941.747 1268.25C939.587 1277.76 933.347 1288.28 922.72 1289.36C901.96 1292.87 881.027 1288.93 860.427 1286.24C803.12 1277.03 746.387 1264.63 689.893 1251.36C564.88 1221.87 440.653 1188.92 317.787 1151.44C259.373 1133.17 200.72 1115.28 144.107 1091.87C127.613 1084.48 110.333 1077.87 95.9733 1066.67C84.2133 1058.76 84.0266 1043.37 82.3733 1030.73C76.8133 968.893 75.7333 906.76 74.04 844.733C70.4666 709.413 72.5733 574.027 71.96 438.667C73.3067 370.453 73.7067 302.187 77.84 234.053C79.7467 213.253 79.8667 192.12 84.96 171.747C86.4667 164.987 91.4133 159.187 97.7733 156.493C106.84 153.493 116.48 153.227 125.933 152.68ZM231.987 378.653C217.187 404.2 223.387 440.28 246.56 458.787C248.947 461.467 253.64 463.76 252.347 468.093C242.067 532.627 244.64 598.64 254.227 663.093C265.16 729.173 285.507 795.16 323.96 850.693C347.933 886.347 380.533 916.107 418.507 936.253C460.533 958.027 508.733 968.133 555.947 963.72C584.04 961.667 611.827 953.24 635.84 938.427C663.76 922.293 685.36 897.387 702.453 870.427C732.68 821.067 747.84 764.267 756.893 707.573C764.12 655.467 766.667 602.68 764.453 550.12C790.213 536.88 805.36 505.987 798.547 477.493C793.867 447.413 764 423.333 733.36 427.76C701.36 430.787 677.253 463.2 680.133 494.627C680.533 520.427 698.107 544.28 722.48 552.613C723.547 624.973 719.693 698.32 700.533 768.453C687.787 812.147 668.187 856.067 633.013 886.333C609.587 906.88 578.907 918.053 548.013 919.907C509.027 920.813 469.013 913.813 434.667 894.667C396.28 874.64 366.733 841.12 345.12 804.147C317.6 755.507 302.387 700.92 293.853 645.96C285.68 588.707 285.4 530.2 294.107 472.987C322.76 467.413 345.333 440.04 344.147 410.667C345.4 382.827 326.293 354.48 298.92 347.533C273 340.373 243.227 354.2 231.987 378.653Z" fill="#5D87FF" stroke="#5D87FF" stroke-width="0.125"/>
<path d="M1121.61 190.12C1131.05 189.373 1136.6 198.533 1138.71 206.52C1145.63 235.933 1148.19 266.133 1151.88 296.067C1168.17 444.173 1179.51 592.787 1190.27 741.4C1197.01 831.507 1202.77 921.693 1206.43 1011.99C1206.77 1031.92 1207.39 1051.89 1206.2 1071.81C1205.21 1079.04 1199.77 1084.59 1195.45 1090.15C1158.93 1129.31 1118.08 1164.11 1076.79 1198.09C1057.09 1213.65 1037.89 1230.05 1016.29 1242.99C1007.35 1247.57 996.6 1251.81 986.96 1246.45C973.827 1235.52 978.28 1216.16 977.507 1201.32C980.547 1152.93 982 1104.47 982.68 1056C981.893 1009.76 984.987 963.573 984 917.333C985.16 730.6 980.747 543.92 973.347 357.347C973.72 341.213 970.867 324.307 976.827 308.853C980.733 301.947 986.84 296.547 992.88 291.533C1029.16 261.6 1064.85 230.96 1101.49 201.467C1107.65 197.08 1113.6 190.773 1121.61 190.12Z" fill="#F0B100" stroke="#F0B100" stroke-width="0.125"/>
<path d="M2054.36 474.75C2050.39 460.924 2044.8 448.708 2037.6 438.102C2030.41 427.307 2021.6 418.216 2011.18 410.83C2000.95 403.254 1989.21 397.477 1975.95 393.5C1962.89 389.523 1948.4 387.534 1932.49 387.534C1902.75 387.534 1876.62 394.92 1854.08 409.693C1831.73 424.466 1814.31 445.962 1801.81 474.182C1789.31 502.212 1783.06 536.492 1783.06 577.023C1783.06 617.553 1789.21 652.023 1801.52 680.432C1813.83 708.841 1831.26 730.527 1853.8 745.489C1876.33 760.261 1902.94 767.648 1933.62 767.648C1961.47 767.648 1985.23 762.723 2004.93 752.875C2024.82 742.837 2039.97 728.727 2050.39 710.545C2060.99 692.364 2066.3 670.867 2066.3 646.057L2091.3 649.75H1941.3V557.136H2184.76V630.432C2184.76 681.568 2173.97 725.508 2152.38 762.25C2130.78 798.803 2101.05 827.023 2063.17 846.909C2025.29 866.606 1981.92 876.455 1933.06 876.455C1878.51 876.455 1830.59 864.428 1789.31 840.375C1748.02 816.133 1715.82 781.758 1692.72 737.25C1669.8 692.553 1658.34 639.523 1658.34 578.159C1658.34 531 1665.16 488.955 1678.8 452.023C1692.62 414.902 1711.94 383.462 1736.75 357.705C1761.56 331.947 1790.44 312.345 1823.4 298.898C1856.35 285.451 1892.05 278.727 1930.5 278.727C1963.45 278.727 1994.14 283.557 2022.55 293.216C2050.95 302.686 2076.14 316.133 2098.11 333.557C2120.27 350.981 2138.36 371.72 2152.38 395.773C2166.39 419.636 2175.39 445.962 2179.36 474.75H2054.36ZM2472.05 877.023C2427.92 877.023 2389.76 867.648 2357.56 848.898C2325.55 829.958 2300.84 803.633 2283.41 769.92C2265.99 736.019 2257.28 696.72 2257.28 652.023C2257.28 606.947 2265.99 567.553 2283.41 533.841C2300.84 499.939 2325.55 473.614 2357.56 454.864C2389.76 435.924 2427.92 426.455 2472.05 426.455C2516.18 426.455 2554.25 435.924 2586.25 454.864C2618.45 473.614 2643.26 499.939 2660.68 533.841C2678.11 567.553 2686.82 606.947 2686.82 652.023C2686.82 696.72 2678.11 736.019 2660.68 769.92C2643.26 803.633 2618.45 829.958 2586.25 848.898C2554.25 867.648 2516.18 877.023 2472.05 877.023ZM2472.62 783.273C2492.69 783.273 2509.45 777.591 2522.9 766.227C2536.35 754.674 2546.48 738.955 2553.3 719.068C2560.31 699.182 2563.81 676.549 2563.81 651.17C2563.81 625.792 2560.31 603.159 2553.3 583.273C2546.48 563.386 2536.35 547.667 2522.9 536.114C2509.45 524.561 2492.69 518.784 2472.62 518.784C2452.35 518.784 2435.31 524.561 2421.48 536.114C2407.84 547.667 2397.52 563.386 2390.51 583.273C2383.7 603.159 2380.29 625.792 2380.29 651.17C2380.29 676.549 2383.7 699.182 2390.51 719.068C2397.52 738.955 2407.84 754.674 2421.48 766.227C2435.31 777.591 2452.35 783.273 2472.62 783.273ZM3083.41 454.011C3081.14 431.095 3071.39 413.292 3054.15 400.602C3036.92 387.913 3013.53 381.568 2983.98 381.568C2963.9 381.568 2946.95 384.409 2933.13 390.091C2919.3 395.583 2908.7 403.254 2901.31 413.102C2894.11 422.951 2890.51 434.125 2890.51 446.625C2890.14 457.042 2892.31 466.133 2897.05 473.898C2901.97 481.663 2908.7 488.386 2917.22 494.068C2925.74 499.561 2935.59 504.39 2946.76 508.557C2957.94 512.534 2969.87 515.943 2982.56 518.784L3034.83 531.284C3060.21 536.966 3083.51 544.542 3104.72 554.011C3125.93 563.481 3144.3 575.129 3159.83 588.955C3175.36 602.78 3187.39 619.068 3195.91 637.818C3204.62 656.568 3209.07 678.064 3209.26 702.307C3209.07 737.913 3199.98 768.784 3181.99 794.92C3164.19 820.867 3138.43 841.038 3104.72 855.432C3071.2 869.636 3030.76 876.739 2983.41 876.739C2936.44 876.739 2895.53 869.542 2860.68 855.148C2826.03 840.754 2798.94 819.447 2779.43 791.227C2760.12 762.818 2749.98 727.686 2749.04 685.83H2868.07C2869.4 705.337 2874.98 721.625 2884.83 734.693C2894.87 747.572 2908.22 757.326 2924.89 763.955C2941.75 770.394 2960.78 773.614 2981.99 773.614C3002.82 773.614 3020.91 770.583 3036.25 764.523C3051.78 758.462 3063.81 750.034 3072.33 739.239C3080.86 728.443 3085.12 716.038 3085.12 702.023C3085.12 688.955 3081.23 677.97 3073.47 669.068C3065.89 660.167 3054.72 652.591 3039.95 646.341C3025.36 640.091 3007.46 634.409 2986.25 629.295L2922.9 613.386C2873.85 601.455 2835.12 582.799 2806.71 557.42C2778.3 532.042 2764.19 497.856 2764.38 454.864C2764.19 419.636 2773.56 388.86 2792.5 362.534C2811.63 336.208 2837.86 315.659 2871.2 300.886C2904.53 286.114 2942.41 278.727 2984.83 278.727C3028.01 278.727 3065.7 286.114 3097.9 300.886C3130.29 315.659 3155.48 336.208 3173.47 362.534C3191.46 388.86 3200.74 419.352 3201.31 454.011H3083.41ZM3410.76 616.227V868.5H3289.73V286.682H3407.35V509.125H3412.46C3422.31 483.367 3438.22 463.197 3460.19 448.614C3482.16 433.841 3509.71 426.455 3542.86 426.455C3573.16 426.455 3599.58 433.083 3622.12 446.341C3644.85 459.409 3662.46 478.254 3674.96 502.875C3687.65 527.307 3693.9 556.568 3693.71 590.659V868.5H3572.69V612.25C3572.88 585.356 3566.06 564.428 3552.23 549.466C3538.6 534.504 3519.47 527.023 3494.85 527.023C3478.37 527.023 3463.79 530.527 3451.1 537.534C3438.6 544.542 3428.75 554.769 3421.55 568.216C3414.54 581.473 3410.95 597.477 3410.76 616.227ZM3986.11 877.023C3941.98 877.023 3903.82 867.648 3871.62 848.898C3839.61 829.958 3814.9 803.633 3797.47 769.92C3780.05 736.019 3771.34 696.72 3771.34 652.023C3771.34 606.947 3780.05 567.553 3797.47 533.841C3814.9 499.939 3839.61 473.614 3871.62 454.864C3903.82 435.924 3941.98 426.455 3986.11 426.455C4030.24 426.455 4068.31 435.924 4100.32 454.864C4132.51 473.614 4157.32 499.939 4174.75 533.841C4192.17 567.553 4200.88 606.947 4200.88 652.023C4200.88 696.72 4192.17 736.019 4174.75 769.92C4157.32 803.633 4132.51 829.958 4100.32 848.898C4068.31 867.648 4030.24 877.023 3986.11 877.023ZM3986.68 783.273C4006.75 783.273 4023.52 777.591 4036.96 766.227C4050.41 754.674 4060.54 738.955 4067.36 719.068C4074.37 699.182 4077.87 676.549 4077.87 651.17C4077.87 625.792 4074.37 603.159 4067.36 583.273C4060.54 563.386 4050.41 547.667 4036.96 536.114C4023.52 524.561 4006.75 518.784 3986.68 518.784C3966.41 518.784 3949.37 524.561 3935.54 536.114C3921.91 547.667 3911.58 563.386 3904.58 583.273C3897.76 603.159 3894.35 625.792 3894.35 651.17C3894.35 676.549 3897.76 699.182 3904.58 719.068C3911.58 738.955 3921.91 754.674 3935.54 766.227C3949.37 777.591 3966.41 783.273 3986.68 783.273ZM4279.58 1032.14V432.136H4398.89V505.432H4404.29C4409.6 493.689 4417.27 481.758 4427.3 469.636C4437.53 457.326 4450.79 447.098 4467.08 438.955C4483.55 430.621 4504.01 426.455 4528.44 426.455C4560.26 426.455 4589.61 434.788 4616.51 451.455C4643.4 467.932 4664.9 492.837 4681 526.17C4697.1 559.314 4705.14 600.886 4705.14 650.886C4705.14 699.561 4697.29 740.659 4681.57 774.182C4666.04 807.515 4644.82 832.799 4617.93 850.034C4591.22 867.08 4561.3 875.602 4528.16 875.602C4504.67 875.602 4484.69 871.72 4468.21 863.955C4451.93 856.189 4438.57 846.436 4428.16 834.693C4417.74 822.761 4409.79 810.735 4404.29 798.614H4400.6V1032.14H4279.58ZM4398.04 650.318C4398.04 676.265 4401.64 698.898 4408.84 718.216C4416.04 737.534 4426.45 752.591 4440.09 763.386C4453.72 773.992 4470.3 779.295 4489.8 779.295C4509.5 779.295 4526.17 773.898 4539.8 763.102C4553.44 752.117 4563.76 736.966 4570.77 717.648C4577.97 698.14 4581.57 675.697 4581.57 650.318C4581.57 625.129 4578.06 602.97 4571.05 583.841C4564.05 564.712 4553.72 549.75 4540.09 538.955C4526.45 528.159 4509.69 522.761 4489.8 522.761C4470.11 522.761 4453.44 527.97 4439.8 538.386C4426.36 548.803 4416.04 563.576 4408.84 582.705C4401.64 601.833 4398.04 624.371 4398.04 650.318Z" fill="#5D87FF"/>
</svg>
